# xmcd
#
# Track frame offsets:
# 150
# 22474
# 44449
# 65588
# 84668
# 102635
# 123642
# 148784
# 164296
# 182213
# 202435
# 220239
# 241311
# 261653
#
# Disc length: 3752 seconds
#
#
# Revision: 0
# Processed by: cddbd v1.4PL0 Copyright (c) Steve Scherf et al.
# Submitted via: FreeRIP 2.40 
#
DISCID=ee0ea60e
DTITLE=Whitney Houston - love, whitney
DYEAR=2001
DGENRE=Pop
TTITLE0=Until you come back
TTITLE1=I have nothing
TTITLE2=Why does it hurt so bad
TTITLE3=You give good love
TTITLE4=All the man that I give
TTITLE5=Where do broken hearts go
TTITLE6=Just the lonely talking again
TTITLE7=exale (shoop shoop)
TTITLE8=Saving all my love for you
TTITLE9=Run to you
TTITLE10=I belive in you and me
TTITLE11=Didn't we almost have it all
TTITLE12=All at once
TTITLE13=I will always love you
EXTD=
EXTT0=
EXTT1=
EXTT2=
EXTT3=
EXTT4=
EXTT5=
EXTT6=
EXTT7=
EXTT8=
EXTT9=
EXTT10=
EXTT11=
EXTT12=
EXTT13=
PLAYORDER=
